<?xml version="1.0" encoding="UTF-8" standalone="no"?>
<!-- Created with Inkscape (http://www.inkscape.org/) -->

<svg
   width="150"
   height="150"
   viewBox="0 0 39.6875 39.687499"
   version="1.1"
   id="svg1"
   inkscape:version="1.3.2 (091e20e, 2023-11-25, custom)"
   sodipodi:docname="drawing.svg"
   xmlns:inkscape="http://www.inkscape.org/namespaces/inkscape"
   xmlns:sodipodi="http://sodipodi.sourceforge.net/DTD/sodipodi-0.dtd"
   xmlns="http://www.w3.org/2000/svg"
   xmlns:svg="http://www.w3.org/2000/svg">
  <sodipodi:namedview
     id="namedview1"
     pagecolor="#ffffff"
     bordercolor="#000000"
     borderopacity="0.25"
     inkscape:showpageshadow="2"
     inkscape:pageopacity="0.0"
     inkscape:pagecheckerboard="0"
     inkscape:deskcolor="#d1d1d1"
     inkscape:document-units="mm"
     inkscape:zoom="2.1095398"
     inkscape:cx="83.904554"
     inkscape:cy="110.92466"
     inkscape:window-width="1440"
     inkscape:window-height="830"
     inkscape:window-x="2553"
     inkscape:window-y="550"
     inkscape:window-maximized="1"
     inkscape:current-layer="layer1" />
  <defs
     id="defs1">
    <rect
       x="283.94818"
       y="301.01352"
       width="16.591295"
       height="18.961481"
       id="rect5" />
    <rect
       x="91.172981"
       y="383.46286"
       width="512.17767"
       height="174.30128"
       id="rect3" />
  </defs>
  <g
     inkscape:label="Layer 1"
     inkscape:groupmode="layer"
     id="layer1"
     transform="translate(-43.289755,-56.9201)">
    <text
       xml:space="preserve"
       style="font-size:3.175px;fill:#f9f9f9;stroke-width:0.264583"
       x="81.273651"
       y="113.38176"
       id="text1"><tspan
         sodipodi:role="line"
         id="tspan1"
         style="stroke-width:0.264583"
         x="81.273651"
         y="113.38176" /></text>
    <text
       xml:space="preserve"
       style="font-size:3.175px;white-space:pre;inline-size:90.4607;fill:#f9f9f9;stroke-width:0.264583"
       x="34.05579"
       y="115.29305"
       id="text2" />
    <text
       xml:space="preserve"
       transform="scale(0.26458333)"
       id="text3"
       style="white-space:pre;shape-inside:url(#rect3);fill:#f9f9f9" />
    <g
       id="text4"
       style="font-size:3.175px;fill:#11110f;stroke-width:0.264583"
       aria-label="Atefeh Etemadipour, crafting memorable design"
       transform="translate(2.416611,4.0925402)">
      <path
         d="m 49.3139,84.084047 0.232211,0.230391 -0.292463,0.616136 0.708739,0.703185 0.613817,-0.297301 0.221205,0.219473 -2.222327,1.046872 -0.290539,-0.288262 z m -0.178743,1.100223 -0.510943,1.089471 1.086519,-0.518407 z m -0.565463,-2.040054 q 0.06837,0.05047 0.140412,0.117881 0.07107,0.0662 0.118637,0.125429 0.166006,0.206688 0.141206,0.403576 -0.0248,0.196888 -0.270166,0.39396 l -0.71797,0.576653 0.123291,0.153505 -0.190975,0.153386 -0.123291,-0.153506 -0.387994,0.311626 -0.182509,-0.227236 0.387994,-0.311626 -0.376669,-0.468977 0.190975,-0.153385 0.376669,0.468976 0.615229,-0.494135 q 0.106366,-0.08543 0.162918,-0.138805 0.05534,-0.0524 0.08402,-0.123156 0.02699,-0.06542 0.01306,-0.1298 -0.0161,-0.06461 -0.0928,-0.160101 -0.04466,-0.0556 -0.108909,-0.103415 -0.06546,-0.04684 -0.0977,-0.0647 l -0.0097,-0.01209 z m -1.686022,-1.059332 0.690932,1.072619 q 0.13424,-0.08647 0.208569,-0.191517 0.07303,-0.104207 0.09155,-0.215722 0.0189,-0.108069 -0.0094,-0.220752 -0.02917,-0.113987 -0.101366,-0.226071 -0.09571,-0.148577 -0.250901,-0.260678 -0.157337,-0.112565 -0.255819,-0.139487 l -0.0084,-0.01303 0.267177,-0.172104 q 0.131887,0.09023 0.25019,0.196593 0.118302,0.10636 0.209811,0.24842 0.233389,0.362318 0.168859,0.691563 -0.06583,0.330084 -0.426847,0.562633 -0.357106,0.230031 -0.692027,0.171003 -0.335761,-0.06033 -0.540606,-0.378338 -0.189733,-0.294547 -0.12012,-0.564367 0.06877,-0.271124 0.385477,-0.47513 z m -0.03404,0.359397 q -0.192049,0.125553 -0.235492,0.29 -0.04428,0.163143 0.08165,0.358638 0.126769,0.196799 0.318321,0.239379 0.190712,0.04128 0.372822,-0.0539 z m -1.782697,-1.069279 0.0071,0.01381 q 0.0094,0.04914 0.03228,0.124521 0.02146,0.07608 0.04826,0.128542 0.08534,0.167048 0.198684,0.204892 0.111257,0.03717 0.304535,-0.06157 l 0.05246,-0.0268 -0.2391,-0.46801 0.218128,-0.111439 0.234868,0.459727 1.323958,-0.676392 0.132598,0.259546 -1.323958,0.676391 0.08958,0.175331 -0.218129,0.111439 -0.08957,-0.175331 -0.05108,0.0261 q -0.274731,0.140357 -0.490896,0.07844 -0.217546,-0.06121 -0.349439,-0.319372 -0.04443,-0.08697 -0.07142,-0.160235 -0.02769,-0.07464 -0.04627,-0.138267 z m 0.515064,-2.184779 0.464215,1.188446 q 0.148736,-0.0581 0.242441,-0.146295 0.09226,-0.08763 0.132561,-0.19325 0.03998,-0.102164 0.03459,-0.218229 -0.006,-0.117508 -0.05446,-0.241695 -0.0643,-0.164621 -0.194149,-0.305303 -0.131856,-0.141563 -0.223033,-0.187502 l -0.0056,-0.01444 0.296028,-0.11563 q 0.111347,0.114621 0.206177,0.242352 0.09483,0.127731 0.156312,0.285131 0.156806,0.401443 0.02819,0.711322 -0.130058,0.310442 -0.530057,0.466684 -0.395667,0.15455 -0.712201,0.0302 -0.317099,-0.125794 -0.454727,-0.47814 -0.127476,-0.326353 -0.0057,-0.576981 0.121235,-0.252072 0.472137,-0.389137 z m -0.10472,0.345483 q -0.213154,0.08492 -0.288382,0.237471 -0.07579,0.151103 0.0088,0.367709 0.08517,0.218051 0.264457,0.297814 0.17872,0.07832 0.376102,0.02119 z m 0.405031,-2.479651 0.07006,0.282908 -0.957072,0.237028 q -0.115872,0.0287 -0.213342,0.06721 -0.09897,0.03889 -0.147213,0.08916 -0.05389,0.05327 -0.06647,0.131455 -0.01409,0.07855 0.01387,0.191415 0.0287,0.115872 0.117186,0.228116 0.08849,0.112244 0.205971,0.206127 l 1.255028,-0.31082 0.07006,0.282908 -2.341515,0.579899 -0.07006,-0.282908 0.847219,-0.209822 q -0.142649,-0.105219 -0.239379,-0.231393 -0.09673,-0.126174 -0.133627,-0.275152 -0.06746,-0.272374 0.06117,-0.455956 0.128622,-0.183581 0.437112,-0.259982 z m -0.285593,-3.207401 0.05341,1.5199 -2.306962,0.08106 -0.05341,-1.5199 0.272683,-0.0096 0.04263,1.213131 0.632129,-0.02221 -0.04263,-1.213131 0.272683,-0.0096 0.04263,1.213131 0.856784,-0.03011 -0.04263,-1.213131 z m 0.08552,-1.362103 q 0.01564,0.08353 0.02242,0.18196 0.0069,0.09688 0.0013,0.172642 -0.01938,0.264391 -0.171707,0.391573 -0.15233,0.127182 -0.466198,0.10418 l -0.918411,-0.06731 -0.01439,0.19636 -0.244291,-0.0179 0.01439,-0.196361 -0.496313,-0.03637 0.0213,-0.290676 0.496313,0.03637 0.04397,-0.599905 0.244291,0.0179 -0.04397,0.599905 0.786989,0.05768 q 0.136061,0.01 0.213821,0.0095 0.07622,-6.32e-4 0.145418,-0.03287 0.06434,-0.02948 0.09802,-0.08608 0.03225,-0.05826 0.0412,-0.180405 0.0052,-0.07112 -0.0092,-0.149903 -0.01598,-0.07889 -0.0274,-0.113929 l 0.0011,-0.01546 z m -0.511894,-1.924272 -0.225376,1.255828 q 0.157169,0.02821 0.283154,0.002 0.124458,-0.02649 0.214016,-0.09547 0.08748,-0.0662 0.143549,-0.16797 0.05634,-0.103294 0.07989,-0.234523 0.03122,-0.173954 -0.006,-0.361757 -0.03843,-0.189603 -0.09215,-0.276422 l 0.0027,-0.01526 0.312813,0.05614 q 0.03502,0.155916 0.04911,0.314375 0.01409,0.15846 -0.01576,0.324785 -0.07613,0.424204 -0.347737,0.621169 -0.273134,0.196692 -0.695812,0.120836 -0.418101,-0.07503 -0.62297,-0.346485 -0.204595,-0.272977 -0.137776,-0.6453 0.06189,-0.344856 0.29672,-0.49487 0.235104,-0.15154 0.605901,-0.085 z m -0.269845,0.239808 q -0.22611,-0.039 -0.369973,0.05173 -0.14359,0.08921 -0.184668,0.318097 -0.04135,0.230413 0.06981,0.392118 0.111433,0.160179 0.309568,0.214637 z m 2.019918,-2.913366 -0.09803,0.274475 -0.928541,-0.331634 q -0.105118,-0.03754 -0.206586,-0.06226 -0.100946,-0.02618 -0.170295,-0.01637 -0.07477,0.01116 -0.129313,0.06247 -0.05454,0.05131 -0.09678,0.169565 -0.04119,0.115337 -0.02399,0.251533 0.01575,0.135673 0.06361,0.282818 0.03514,0.0076 0.08145,0.02086 0.04484,0.01272 0.08864,0.02837 l 1.043878,0.372827 -0.09803,0.274475 -0.928541,-0.331634 q -0.108038,-0.03859 -0.208046,-0.06278 -0.100946,-0.02618 -0.170295,-0.01638 -0.07477,0.01116 -0.127853,0.06299 -0.05454,0.05131 -0.09678,0.169565 -0.04015,0.112418 -0.02534,0.24611 0.01533,0.132232 0.06132,0.275415 l 1.217614,0.434878 -0.09803,0.274474 -1.630786,-0.582444 0.09803,-0.274475 0.181036,0.06466 q -0.06069,-0.166542 -0.07519,-0.314938 -0.01397,-0.149856 0.03765,-0.294393 0.05944,-0.166437 0.170716,-0.256746 0.111793,-0.09177 0.256227,-0.104385 -0.08071,-0.216495 -0.09302,-0.375632 -0.01376,-0.159659 0.04203,-0.315876 0.09594,-0.268634 0.304826,-0.337251 0.207943,-0.0706 0.499937,0.03369 z m 0.934986,-1.669383 -0.141275,0.253152 -0.161097,-0.0899 q 0.0041,0.04669 0.01361,0.128319 0.0089,0.07952 0.003,0.147271 -0.0044,0.081 -0.03015,0.174914 -0.02442,0.09467 -0.08637,0.205675 -0.114078,0.204417 -0.328779,0.271014 -0.214701,0.0666 -0.424533,-0.0505 -0.171927,-0.09595 -0.236724,-0.227976 -0.0654,-0.13414 -0.05001,-0.304866 0.01614,-0.17208 0.102513,-0.377755 0.08637,-0.205675 0.199442,-0.433735 l -0.03926,-0.02191 q -0.08664,-0.04835 -0.160874,-0.04894 -0.07348,-0.0019 -0.137699,0.03678 -0.06135,0.03677 -0.114492,0.10654 -0.05314,0.06977 -0.09922,0.152346 -0.0559,0.100178 -0.09758,0.23848 -0.04303,0.137546 -0.06622,0.296813 l -0.0076,0.01354 -0.258568,-0.144297 q 0.02125,-0.08579 0.07545,-0.240178 0.0542,-0.15439 0.130506,-0.291119 0.08915,-0.159744 0.181949,-0.262411 0.0922,-0.104776 0.204181,-0.155909 0.109868,-0.05053 0.233623,-0.04006 0.123755,0.01048 0.269961,0.09207 z m -0.513558,0.0454 -0.421019,-0.234954 q -0.0582,0.120201 -0.133056,0.286145 -0.0741,0.164591 -0.09975,0.271 -0.03006,0.127031 -0.0015,0.231737 0.02721,0.103951 0.142276,0.168167 0.129961,0.07253 0.240113,0.03103 0.108798,-0.04225 0.1987,-0.203352 0.07479,-0.134022 0.0853,-0.273738 0.0092,-0.140472 -0.01107,-0.276031 z m 1.654535,-1.647425 -0.173612,0.234104 -0.145693,-0.108046 q 0.01237,0.165507 -0.02034,0.311103 -0.0327,0.145596 -0.127819,0.273856 -0.184693,0.249047 -0.485429,0.253771 -0.299812,0.0035 -0.639762,-0.248629 -0.176824,-0.131132 -0.278106,-0.283447 -0.100359,-0.153559 -0.133768,-0.311511 -0.03184,-0.15486 0.0015,-0.30387 0.03423,-0.150255 0.123803,-0.271043 0.08126,-0.109581 0.167721,-0.176711 0.08521,-0.06805 0.203034,-0.125431 L 46.885214,63.4145 47.058826,63.180395 Z M 48.480327,64.597463 47.68213,64.00552 q -0.112522,0.06324 -0.184118,0.125949 -0.0716,0.06271 -0.137162,0.151121 -0.145908,0.196747 -0.0902,0.40791 0.05571,0.211162 0.307249,0.397703 0.247802,0.18377 0.440103,0.195134 0.191055,0.01044 0.329575,-0.176344 0.07388,-0.09962 0.106019,-0.23405 0.0309,-0.135354 0.02673,-0.27548 z m -0.393296,-1.993276 -0.219856,0.244299 -0.224709,-0.202226 0.219856,-0.244299 z m 1.490226,1.366151 -0.194967,0.216643 -1.28718,-1.158393 0.194967,-0.216643 z m 0.909268,-2.113152 q 0.142684,0.155224 0.216725,0.325114 0.07299,0.168749 0.07379,0.332264 0.0023,0.153705 -0.0574,0.294924 -0.05962,0.139028 -0.17375,0.243943 -0.0993,0.09128 -0.200268,0.14408 -0.09983,0.05175 -0.225114,0.08269 l 0.491002,0.534155 -0.214575,0.19724 -1.60415,-1.745133 0.214575,-0.19724 0.122751,0.133538 q 0.01951,-0.150591 0.08159,-0.296099 0.06217,-0.147699 0.183158,-0.258908 0.230553,-0.211929 0.518905,-0.154806 0.288444,0.05493 0.572764,0.36424 z m -0.216178,0.209242 q -0.211928,-0.230554 -0.395596,-0.272299 -0.183669,-0.04174 -0.346883,0.108285 -0.09245,0.08498 -0.149321,0.210958 -0.05687,0.125978 -0.08267,0.269722 l 0.664112,0.722478 q 0.129078,-0.04284 0.207774,-0.08781 0.07984,-0.04601 0.163157,-0.122601 0.179193,-0.164717 0.168422,-0.378025 -0.01077,-0.213309 -0.228994,-0.450711 z m 1.886129,-1.392587 q 0.24369,0.346032 0.207275,0.67127 -0.03642,0.325237 -0.334283,0.535007 -0.300402,0.211556 -0.618891,0.136257 -0.317222,-0.07619 -0.560913,-0.422223 -0.24369,-0.346033 -0.208542,-0.670378 0.03552,-0.326505 0.335925,-0.53806 0.297866,-0.20977 0.617249,-0.133204 0.318489,0.0753 0.56218,0.421331 z m -0.245899,0.173172 q -0.193703,-0.275052 -0.395169,-0.332267 -0.202359,-0.05848 -0.393754,0.07631 -0.19393,0.136574 -0.20705,0.346805 -0.01274,0.208071 0.180959,0.483123 0.187454,0.266179 0.392491,0.328464 0.204144,0.06102 0.396807,-0.07466 0.190128,-0.133896 0.202354,-0.345394 0.0126,-0.213659 -0.176638,-0.482373 z m 2.405222,-0.364081 -0.258144,0.135305 -0.08924,-0.170266 q -0.07647,0.171356 -0.16714,0.288894 -0.09067,0.117539 -0.234849,0.193108 -0.241667,0.126669 -0.453241,0.05028 -0.212293,-0.07776 -0.361991,-0.363372 l -0.521787,-0.995505 0.258145,-0.135305 0.457733,0.873299 q 0.06117,0.116714 0.116062,0.194716 0.05417,0.07663 0.120815,0.11696 0.06874,0.04098 0.142179,0.0375 0.07344,-0.0035 0.186033,-0.0625 0.100237,-0.05254 0.190975,-0.166611 0.09211,-0.114793 0.152633,-0.249784 l -0.600235,-1.145174 0.258145,-0.135305 z m 1.001161,-1.934099 -0.01436,0.0058 q -0.06616,0.01015 -0.125944,0.02774 -0.05893,0.01558 -0.13649,0.04709 -0.124956,0.05077 -0.218534,0.154053 -0.09416,0.101846 -0.166285,0.233226 l 0.462764,1.13896 -0.270018,0.10971 -0.651839,-1.604311 0.270018,-0.10971 0.09629,0.236984 q 0.108342,-0.194623 0.208832,-0.297367 0.101344,-0.104765 0.229172,-0.156702 0.07038,-0.02859 0.103726,-0.03712 0.03277,-0.01 0.100045,-0.02559 z m 0.812264,0.781532 -0.09835,1.101171 -0.215032,0.07066 -0.06071,-1.048905 z m 3.005327,-0.283351 q -0.13367,0.09075 -0.258177,0.148758 -0.122973,0.05778 -0.268599,0.07978 -0.18548,0.02802 -0.348408,-0.0022 -0.16316,-0.03179 -0.290204,-0.125488 -0.128576,-0.09346 -0.215366,-0.252817 -0.08679,-0.159355 -0.120835,-0.384691 -0.06346,-0.420014 0.13035,-0.693885 0.195339,-0.274102 0.573965,-0.331305 0.147158,-0.02223 0.294438,-0.0022 0.148812,0.01985 0.275877,0.0618 l 0.0484,0.320376 -0.01533,0.0023 q -0.147346,-0.08279 -0.29671,-0.116665 -0.147831,-0.03411 -0.281193,-0.01396 -0.245263,0.03706 -0.362811,0.224146 -0.116246,0.185326 -0.06808,0.504169 0.04678,0.309645 0.209985,0.455887 0.164506,0.144479 0.415901,0.106498 0.08738,-0.0132 0.174342,-0.04986 0.08697,-0.03666 0.153455,-0.08433 0.05799,-0.04169 0.107843,-0.08528 0.04963,-0.04513 0.07788,-0.07605 l 0.01533,-0.0023 z m 1.396717,-1.379942 -0.01548,8.03e-4 q -0.06583,-0.01211 -0.128077,-0.01509 -0.06078,-0.0046 -0.144386,-2.74e-4 -0.134694,0.007 -0.256968,0.07387 -0.122354,0.06533 -0.233572,0.165798 l 0.06367,1.227732 -0.291064,0.0151 -0.08968,-1.729353 0.291063,-0.01509 0.01325,0.255455 q 0.166174,-0.148332 0.294801,-0.21244 0.130096,-0.06574 0.267886,-0.07288 0.07586,-0.0039 0.110164,-0.0011 0.03422,0.0013 0.102905,0.0086 z m 1.636996,1.488605 -0.289471,-0.01586 0.01009,-0.184209 q -0.04014,0.0242 -0.109332,0.06854 -0.06756,0.04288 -0.131003,0.06735 -0.07471,0.03162 -0.170403,0.04967 -0.09578,0.0196 -0.222717,0.01264 -0.233744,-0.0128 -0.387802,-0.176502 -0.154059,-0.163699 -0.140918,-0.403635 0.01077,-0.196593 0.100971,-0.312756 0.09184,-0.117627 0.251997,-0.178723 0.161709,-0.06101 0.384425,-0.07365 0.222717,-0.01264 0.477263,-0.01112 l 0.0025,-0.04489 q 0.0054,-0.09907 -0.02662,-0.166035 -0.03049,-0.06688 -0.09347,-0.107593 -0.05997,-0.03899 -0.145977,-0.05613 -0.08601,-0.01713 -0.180434,-0.0223 -0.11455,-0.0063 -0.257111,0.01697 -0.142477,0.0217 -0.295767,0.07075 l -0.01548,-8.48e-4 0.01619,-0.295663 q 0.08641,-0.01856 0.248925,-0.0376 0.162516,-0.01905 0.318861,-0.01048 0.182661,0.01 0.315639,0.04834 0.13461,0.03687 0.229696,0.115053 0.09362,0.07655 0.138516,0.192348 0.04489,0.1158 0.03574,0.282981 z m -0.266156,-0.441547 0.02637,-0.48142 q -0.13355,4.48e-4 -0.315511,0.006 -0.180412,0.0056 -0.287285,0.02929 -0.127336,0.02874 -0.208889,0.100347 -0.08147,0.07006 -0.08867,0.201641 -0.0081,0.148606 0.07749,0.229374 0.08571,0.07922 0.269921,0.08931 0.15325,0.0084 0.283405,-0.04348 0.130241,-0.05342 0.243177,-0.131074 z m 2.072738,-1.439736 -0.01532,-0.0024 q -0.04533,-0.02121 -0.119753,-0.04698 -0.07419,-0.0273 -0.132391,-0.0364 -0.185331,-0.02899 -0.282511,0.04054 -0.09541,0.06824 -0.128951,0.282674 l -0.0091,0.0582 0.519235,0.08122 -0.03786,0.242004 -0.510045,-0.07978 -0.229767,1.468869 -0.287954,-0.04504 0.229767,-1.468869 -0.194522,-0.03043 0.03786,-0.242003 0.194521,0.03043 0.0089,-0.05667 q 0.04768,-0.304802 0.22471,-0.443439 0.177271,-0.140169 0.463693,-0.09537 0.09649,0.01509 0.171641,0.03626 0.07668,0.02141 0.139091,0.04373 z m 0.728365,2.345976 q -0.08496,0.0021 -0.183202,-0.007 -0.09674,-0.0087 -0.170632,-0.0263 -0.257886,-0.06142 -0.35906,-0.23214 -0.101174,-0.170715 -0.02826,-0.47686 l 0.213369,-0.895814 -0.191529,-0.04562 0.05676,-0.238281 0.191529,0.04562 0.115305,-0.484102 0.283524,0.06753 -0.115306,0.484102 0.585145,0.139372 -0.05676,0.238281 -0.585144,-0.139373 -0.182837,0.767625 q -0.03161,0.132713 -0.04354,0.209555 -0.01157,0.07533 0.0092,0.148804 0.01881,0.06823 0.06929,0.11053 0.05235,0.04116 0.17149,0.06953 0.06937,0.01652 0.149448,0.01488 0.08043,-0.0032 0.116845,-0.0088 l 0.01508,0.0036 z m 1.236812,-1.712081 -0.313557,-0.09849 0.09059,-0.288414 0.313558,0.09849 z m -0.623561,1.923099 -0.278061,-0.08734 0.518937,-1.652093 0.27806,0.08734 z m 1.885087,0.737466 -0.268441,-0.113515 0.384017,-0.90813 q 0.04649,-0.109946 0.0741,-0.211048 0.02821,-0.10253 0.01688,-0.17128 -0.01034,-0.07507 -0.06537,-0.132003 -0.05443,-0.05836 -0.161522,-0.103649 -0.109946,-0.04649 -0.252832,-0.04295 -0.142886,0.0035 -0.288457,0.04129 l -0.50357,1.19085 -0.268441,-0.113515 0.674446,-1.594939 0.26844,0.113515 -0.07487,0.177057 q 0.169731,-0.0511 0.328707,-0.05289 0.158976,-0.0018 0.300336,0.05799 0.258446,0.109288 0.32828,0.322287 0.06983,0.213 -0.05394,0.505715 z m 1.812351,0.798437 q -0.223547,0.37931 -0.500528,0.455403 -0.276982,0.07609 -0.634922,-0.134859 -0.118868,-0.07006 -0.222161,-0.154325 -0.102745,-0.08215 -0.19416,-0.177411 l 0.151131,-0.256435 0.01336,0.0079 q 0.04727,0.06025 0.160363,0.173688 0.112307,0.114775 0.245867,0.193489 0.128217,0.07556 0.230464,0.09444 0.102247,0.01887 0.181266,-0.0083 0.07744,-0.02454 0.14077,-0.08619 0.06333,-0.06165 0.116852,-0.152471 l 0.08029,-0.136231 q -0.167052,0.02391 -0.297991,0.0079 -0.128817,-0.01653 -0.289088,-0.110991 -0.26712,-0.157428 -0.311372,-0.442636 -0.04213,-0.285757 0.164887,-0.637019 0.113348,-0.192327 0.248634,-0.299743 0.137409,-0.107965 0.290724,-0.154371 0.1427,-0.04366 0.297609,-0.02255 0.155696,0.01978 0.278571,0.0922 0.129553,0.07635 0.200624,0.154228 0.07319,0.07733 0.139207,0.188213 l 0.05381,-0.05466 0.235065,0.138536 z m -0.109407,-0.38839 0.479367,-0.813379 q -0.07341,-0.104446 -0.149201,-0.174308 -0.07367,-0.07041 -0.159149,-0.120788 -0.207018,-0.122006 -0.407748,-0.05316 -0.200731,0.06885 -0.356584,0.333295 -0.147982,0.251092 -0.136185,0.432596 0.0118,0.181505 0.216143,0.301937 0.109519,0.06455 0.243439,0.08769 0.136043,0.02259 0.269918,0.0061 z m 3.201618,3.304456 -0.208209,-0.203949 0.689955,-0.704365 q 0.07811,-0.07974 0.143039,-0.161536 0.06604,-0.08071 0.08617,-0.147792 0.02118,-0.07257 -0.0026,-0.143586 -0.02376,-0.07101 -0.113463,-0.158885 -0.08749,-0.0857 -0.218377,-0.127104 -0.1298,-0.04251 -0.283467,-0.06065 -0.02163,0.02873 -0.05304,0.06523 -0.03033,0.0354 -0.06287,0.06862 l -0.775657,0.791857 -0.208209,-0.203949 0.689955,-0.704365 q 0.08028,-0.08196 0.144125,-0.162643 0.06604,-0.08071 0.08617,-0.147793 0.02117,-0.07257 -0.0037,-0.142478 -0.02376,-0.07101 -0.113463,-0.158885 -0.08528,-0.08353 -0.212885,-0.126064 -0.126501,-0.04145 -0.275783,-0.05964 l -0.904753,0.923649 -0.208208,-0.203949 1.21176,-1.23707 0.208209,0.203949 -0.13452,0.137329 q 0.176653,0.01462 0.317483,0.06359 0.141938,0.05006 0.251579,0.157457 0.126255,0.123671 0.161675,0.262533 0.03653,0.139947 -0.01249,0.276392 0.230399,0.01735 0.380066,0.07281 0.150752,0.05435 0.269254,0.170429 0.203779,0.19961 0.178629,0.41803 -0.02296,0.218397 -0.239924,0.439896 z m 1.860793,1.138901 -0.751994,-1.03073 q -0.128998,0.09411 -0.197107,0.203294 -0.06686,0.108268 -0.07888,0.22067 -0.0126,0.108984 0.02221,0.219834 0.03573,0.112102 0.11431,0.219809 0.104165,0.142775 0.265601,0.245684 0.163602,0.103248 0.263481,0.124412 l 0.0091,0.01252 -0.256743,0.187313 q -0.1369,-0.08243 -0.261174,-0.181748 -0.124273,-0.09932 -0.223869,-0.235829 -0.254015,-0.348169 -0.208694,-0.680603 0.04657,-0.333347 0.393489,-0.586448 0.343159,-0.25036 0.680941,-0.210861 0.338695,0.04075 0.561643,0.346339 0.206502,0.283043 0.152658,0.556448 -0.05293,0.274657 -0.357264,0.496692 z m 0.01313,-0.360767 q 0.184442,-0.136483 0.218272,-0.303173 0.03474,-0.165437 -0.102316,-0.353297 -0.137972,-0.189114 -0.331671,-0.220509 -0.192785,-0.03014 -0.369067,0.07544 z m 0.70982,3.472839 -0.130661,-0.260526 0.881353,-0.442023 q 0.09978,-0.05004 0.187758,-0.106307 0.08868,-0.05488 0.129513,-0.111781 0.0436,-0.06176 0.04421,-0.136637 6.02e-4,-0.07488 -0.05569,-0.187126 -0.0549,-0.109477 -0.165242,-0.191153 -0.10895,-0.08237 -0.248388,-0.149452 -0.02979,0.02014 -0.07136,0.04446 -0.04018,0.02362 -0.08176,0.04447 l -0.990829,0.496929 -0.130661,-0.260526 0.881353,-0.442024 q 0.102547,-0.05143 0.189144,-0.107001 0.08868,-0.05488 0.129512,-0.111782 0.0436,-0.06176 0.04282,-0.135941 6.01e-4,-0.07488 -0.05569,-0.187127 -0.05352,-0.106704 -0.160385,-0.188385 -0.106175,-0.08029 -0.241452,-0.145994 l -1.155737,0.579636 -0.130661,-0.260526 1.547912,-0.776322 0.130661,0.260526 -0.171836,0.08618 q 0.162322,0.07121 0.279604,0.163281 0.117978,0.09345 0.186783,0.230644 0.07923,0.157979 0.06762,0.300815 -0.01092,0.144223 -0.101602,0.257344 0.212265,0.09126 0.335798,0.19233 0.124919,0.100378 0.199285,0.248656 0.127881,0.254982 0.03314,0.453386 -0.09266,0.199094 -0.369815,0.338095 z m 1.425202,1.699367 q -0.404544,0.124367 -0.702455,-0.01111 -0.29791,-0.135481 -0.404966,-0.483715 -0.107967,-0.351198 0.06239,-0.630635 0.17081,-0.277955 0.575354,-0.402323 0.404545,-0.124367 0.702,0.0096 0.299392,0.135025 0.407359,0.486223 0.107057,0.348235 -0.06478,0.628127 -0.170354,0.279437 -0.574899,0.403805 z m -0.08838,-0.287479 q 0.321561,-0.09886 0.438433,-0.272647 0.118353,-0.174246 0.04956,-0.398005 -0.0697,-0.226723 -0.265499,-0.304391 -0.193861,-0.07664 -0.515422,0.02222 -0.311188,0.09567 -0.433987,0.27128 -0.121317,0.175157 -0.05207,0.400398 0.06833,0.222278 0.265614,0.29949 0.199218,0.07824 0.51337,-0.01834 z m 0.941686,1.778326 -0.0029,-0.01522 q 0.0029,-0.06687 -0.0028,-0.128932 -0.0039,-0.06083 -0.01977,-0.143025 -0.02562,-0.132421 -0.108824,-0.244227 -0.08169,-0.1121 -0.196616,-0.208296 l -1.207009,0.233479 -0.05535,-0.286151 1.700161,-0.328873 0.05535,0.286151 -0.251143,0.04858 q 0.169963,0.143975 0.251306,0.262458 0.08316,0.11971 0.109363,0.255175 0.01443,0.07458 0.01634,0.108951 0.0034,0.03407 0.0057,0.103107 z m -1.246969,1.827485 -0.02449,-0.288868 0.183826,-0.01558 q -0.02953,-0.03639 -0.08305,-0.09876 -0.05184,-0.06095 -0.08488,-0.120384 -0.04168,-0.06959 -0.07284,-0.161857 -0.0327,-0.09213 -0.04344,-0.218805 -0.01977,-0.233257 0.120953,-0.408551 0.140726,-0.175294 0.380163,-0.195591 0.196183,-0.01663 0.323745,0.05657 0.129238,0.07462 0.211977,0.224744 0.08287,0.151672 0.126312,0.370477 0.04344,0.218804 0.07728,0.471096 l 0.0448,-0.0038 q 0.09886,-0.0084 0.160732,-0.04941 0.062,-0.03948 0.09357,-0.107507 0.03029,-0.0648 0.03532,-0.152355 0.005,-0.08755 -0.003,-0.181784 -0.0097,-0.114312 -0.0525,-0.252265 -0.04127,-0.138085 -0.111124,-0.283081 l -0.0013,-0.01545 0.295047,-0.02501 q 0.03037,0.083 0.0718,0.241294 0.04142,0.158298 0.05465,0.314318 0.01545,0.18228 -0.0041,0.319293 -0.01783,0.138426 -0.08205,0.243445 -0.06281,0.103343 -0.171255,0.163879 -0.108446,0.06054 -0.275279,0.07468 z m 0.40032,-0.324879 0.480418,-0.04072 q -0.01899,-0.132194 -0.04975,-0.311621 -0.03064,-0.177882 -0.06889,-0.280437 -0.04614,-0.122113 -0.128376,-0.192934 -0.0807,-0.07095 -0.212,-0.05982 -0.148296,0.01257 -0.216394,0.108583 -0.06655,0.09588 -0.05097,0.279707 0.01296,0.15293 0.0824,0.274624 0.07098,0.121563 0.163566,0.222624 z m 0.422799,2.44905 q -0.216826,-0.0097 -0.387529,-0.07933 -0.170771,-0.06813 -0.283856,-0.177134 -0.117455,-0.11541 -0.173543,-0.249813 -0.05454,-0.134335 -0.0475,-0.292308 0.0066,-0.147132 0.04707,-0.255508 0.03897,-0.108444 0.102581,-0.212688 l -0.07971,-0.02217 0.01214,-0.272581 2.409868,0.107314 -0.01297,0.291166 -0.86111,-0.03835 q 0.09522,0.126835 0.152582,0.267502 0.05891,0.140736 0.05125,0.312648 -0.01365,0.306654 -0.256929,0.47273 -0.243342,0.167624 -0.672348,0.14852 z m 0.0056,-0.300804 q 0.309751,0.01379 0.473825,-0.08132 0.165623,-0.09505 0.175761,-0.322713 0.0057,-0.126998 -0.04431,-0.259577 -0.04841,-0.132509 -0.130178,-0.247882 l -0.991206,-0.04414 q -0.06127,0.121417 -0.08689,0.208731 -0.02568,0.08886 -0.03072,0.201922 -0.01076,0.241606 0.141145,0.384931 0.153384,0.144944 0.492562,0.160048 z m -0.998046,1.003396 0.04043,-0.288638 2.388934,0.33462 -0.04043,0.288638 z m 0.398581,2.173892 0.292048,-1.242017 q -0.155441,-0.03655 -0.282644,-0.01709 -0.125695,0.01981 -0.218805,0.08392 -0.09089,0.06144 -0.152305,0.160073 -0.06177,0.100141 -0.09229,0.229927 -0.04045,0.172041 -0.01335,0.36156 0.02826,0.191383 0.07727,0.280944 l -0.0035,0.01509 -0.309372,-0.07275 q -0.02665,-0.157562 -0.03227,-0.316548 -0.0056,-0.158985 0.03306,-0.323481 0.09865,-0.419539 0.380379,-0.601735 0.283237,-0.181841 0.701267,-0.08355 0.413502,0.09723 0.603599,0.379224 0.189742,0.283502 0.103156,0.651731 -0.0802,0.341064 -0.322696,0.478337 -0.242853,0.138782 -0.609573,0.05255 z m 0.282254,-0.225072 q 0.223707,0.05101 0.372206,-0.03192 0.148144,-0.08142 0.201373,-0.307794 0.05358,-0.227879 -0.04879,-0.395283 -0.10273,-0.165896 -0.297678,-0.230846 z"
         id="path6" />
      <path
         style="fill:#d75c1e"
         d="m 74.029524,81.108229 0.122469,-0.264476 0.164594,0.07622 q -0.04571,-0.159549 -0.04325,-0.308752 0.0025,-0.149203 0.06956,-0.294102 0.130286,-0.281357 0.4238,-0.347038 0.292863,-0.06427 0.676915,0.113567 0.199764,0.0925 0.32986,0.221083 0.129444,0.129987 0.194225,0.277867 0.06262,0.14517 0.06026,0.297838 -0.003,0.154075 -0.0662,0.290533 -0.05733,0.123797 -0.128352,0.207081 -0.06962,0.08394 -0.173342,0.164039 l 0.680885,0.315293 -0.122469,0.264475 z m 0.509335,-0.08533 0.90175,0.417567 q 0.09734,-0.08477 0.154713,-0.160705 0.05737,-0.07594 0.103626,-0.175821 0.102926,-0.222272 0.0055,-0.417726 -0.09742,-0.195455 -0.381591,-0.327044 -0.279951,-0.129635 -0.470554,-0.101722 -0.189196,0.02856 -0.28691,0.239582 -0.05212,0.112543 -0.0563,0.2507 -0.0028,0.138807 0.02976,0.275169 z m -0.852178,2.261138 0.68013,-1.0795 q -0.135101,-0.08512 -0.261718,-0.108092 -0.125305,-0.02214 -0.234203,0.0082 -0.105932,0.02854 -0.196087,0.101834 -0.09098,0.07461 -0.162052,0.187409 -0.09421,0.14953 -0.130222,0.33756 -0.03553,0.190168 -0.01831,0.290801 l -0.0083,0.01312 -0.268892,-0.169413 q 0.02604,-0.157665 0.07244,-0.309832 0.0464,-0.152168 0.136477,-0.295139 0.229741,-0.364643 0.555409,-0.445302 0.326981,-0.07983 0.690312,0.149081 0.359396,0.226435 0.44744,0.554924 0.08722,0.3298 -0.114425,0.649847 -0.186768,0.296436 -0.460729,0.347374 -0.274787,0.05225 -0.593522,-0.148567 z m 0.340111,-0.121033 q 0.194953,0.120996 0.362352,0.09087 0.166572,-0.02881 0.290533,-0.225563 0.124787,-0.198061 0.08243,-0.389661 -0.04319,-0.190288 -0.206411,-0.315113 z m -1.706727,1.303264 q -0.184435,-0.149148 -0.178767,-0.397774 0.0047,-0.24742 0.218179,-0.511415 0.120879,-0.149477 0.257218,-0.246575 0.136571,-0.09492 0.247,-0.14518 l 0.254351,0.205687 -0.0097,0.01206 q -0.167525,0.04197 -0.321999,0.134374 -0.153269,0.09338 -0.250751,0.213923 -0.120878,0.149477 -0.140897,0.272852 -0.02002,0.123375 0.08365,0.207209 0.07956,0.06434 0.157589,0.05168 0.07803,-0.01266 0.21224,-0.119457 0.04984,-0.03944 0.127671,-0.106101 0.07685,-0.06545 0.145397,-0.115693 0.190312,-0.139185 0.34116,-0.140811 0.151079,5.53e-4 0.283679,0.107784 0.08318,0.06726 0.129415,0.16048 0.04526,0.09442 0.04659,0.21113 0.0021,0.113323 -0.04922,0.243312 -0.05106,0.13217 -0.155363,0.261154 -0.09748,0.120546 -0.227051,0.219132 -0.129338,0.100766 -0.237817,0.148619 l -0.242297,-0.19594 0.0097,-0.01206 q 0.134076,-0.03513 0.277879,-0.124195 0.145009,-0.08809 0.241517,-0.207434 0.100406,-0.124162 0.121401,-0.248743 0.0222,-0.123605 -0.07183,-0.199642 -0.08318,-0.06726 -0.167285,-0.04955 -0.08313,0.01651 -0.201288,0.108378 -0.06516,0.05099 -0.14201,0.116437 -0.07783,0.06666 -0.131801,0.108743 -0.163866,0.128671 -0.321076,0.143096 -0.158417,0.01345 -0.305483,-0.105478 z m 0.561856,1.608895 0.227353,-0.237337 0.218306,0.209122 -0.227353,0.237338 z m -1.446982,-1.411872 0.201615,-0.210469 1.250502,1.197895 -0.201616,0.210469 z m -1.335081,1.483629 q -0.287725,-0.333262 -0.271094,-0.620023 0.01663,-0.286762 0.331118,-0.558278 0.104438,-0.09017 0.217353,-0.161027 0.110727,-0.07102 0.230253,-0.127106 l 0.194518,0.225304 -0.01174,0.01013 q -0.07221,0.02548 -0.215902,0.09628 -0.144699,0.06963 -0.262045,0.17094 -0.112652,0.09726 -0.163278,0.188075 -0.05063,0.09082 -0.05016,0.174386 -0.0016,0.08122 0.03656,0.160961 0.03812,0.07974 0.107012,0.159532 l 0.103338,0.119693 q 0.03085,-0.16591 0.08793,-0.284831 0.05692,-0.116734 0.197739,-0.238308 0.234691,-0.202623 0.519048,-0.153193 0.284197,0.05162 0.550646,0.360236 0.145889,0.168978 0.204315,0.331542 0.05827,0.164751 0.05312,0.324852 -0.0043,0.149168 -0.07396,0.289153 -0.06861,0.141158 -0.176565,0.234365 -0.113826,0.09827 -0.210363,0.140655 -0.0967,0.04457 -0.222884,0.07159 l 0.03455,0.06848 -0.206529,0.178309 z m 0.402971,0.02076 0.616988,0.714636 q 0.122455,-0.03609 0.212914,-0.08551 0.0903,-0.04724 0.165399,-0.112077 0.181886,-0.157033 0.180959,-0.36924 -9.26e-4,-0.212207 -0.201523,-0.444551 -0.190466,-0.22061 -0.366187,-0.26757 -0.17572,-0.04696 -0.355259,0.108047 -0.09622,0.08308 -0.161041,0.202528 -0.06498,0.12164 -0.09225,0.253737 z m -2.202132,0.970741 0.243838,-0.159653 0.540102,0.824899 q 0.06539,0.09987 0.133961,0.179127 0.06942,0.08055 0.132818,0.109459 0.06809,0.03324 0.146036,0.01927 0.07879,-0.01268 0.176069,-0.07637 0.09987,-0.06539 0.176549,-0.186011 0.07668,-0.12062 0.126444,-0.262534 l -0.708247,-1.081707 0.243838,-0.159653 0.948576,1.448762 -0.243838,0.159652 -0.105303,-0.160829 q -0.05214,0.169413 -0.139245,0.302417 -0.0871,0.133004 -0.215505,0.217076 -0.234759,0.153709 -0.45054,0.09301 -0.215781,-0.0607 -0.389871,-0.326586 z"
         id="path7" />
    </g>
    <text
       xml:space="preserve"
       transform="scale(0.26458333)"
       id="text5"
       style="white-space:pre;shape-inside:url(#rect5);fill:#a85109;fill-opacity:1;stroke:#000000;stroke-opacity:1" />
  </g>
</svg>
